HIERARCHY
ROOT Hips
{
	OFFSET 0.000000 83.214638 0.000000
	CHANNELS 6 Xposition Yposition Zposition Xrotation Yrotation Zrotation
	JOINT Pelvis
	{
		OFFSET 0.000000 0.000000 0.000000
		CHANNELS 3 Xrotation Yrotation Zrotation
		JOINT LeftUpLeg
		{
			OFFSET 8.479700 -4.795502 -0.379100
			CHANNELS 3 Xrotation Yrotation Zrotation
			JOINT LeftLeg
			{
				OFFSET 0.024144 -32.555107 0.112900
				CHANNELS 3 Xrotation Yrotation Zrotation
				JOINT LeftFoot
				{
					OFFSET -0.024144 -32.638630 -3.012600
					CHANNELS 3 Xrotation Yrotation Zrotation
					JOINT LeftToeBase
					{
						OFFSET 0.970200 -13.225400 11.864200
						CHANNELS 3 Xrotation Yrotation Zrotation
						End Site
						{
							OFFSET 0.000000 12.319262 0.000000
						}
					}
					JOINT LFootTongue
					{
						OFFSET 1.142400 -1.059800 6.665200
						CHANNELS 3 Xrotation Yrotation Zrotation
						End Site
						{
							OFFSET 0.000000 12.319262 0.000000
						}
					}
				}
				JOINT LeftPantLeg
				{
					OFFSET 0.918482 -16.533964 -2.284700
					CHANNELS 3 Xrotation Yrotation Zrotation
					End Site
					{
						OFFSET 0.350399 24.744368 0.000000
					}
				}
			}
		}
		JOINT RightUpLeg
		{
			OFFSET -8.479700 -4.795502 -0.379100
			CHANNELS 3 Xrotation Yrotation Zrotation
			JOINT RightLeg
			{
				OFFSET -0.023144 -32.555092 0.112900
				CHANNELS 3 Xrotation Yrotation Zrotation
				JOINT RightFoot
				{
					OFFSET 0.023144 -32.638641 -3.012700
					CHANNELS 3 Xrotation Yrotation Zrotation
					JOINT RightToeBase
					{
						OFFSET -0.970200 -13.225400 11.864200
						CHANNELS 3 Xrotation Yrotation Zrotation
						End Site
						{
							OFFSET 0.000000 12.319244 0.000000
						}
					}
					JOINT RFootTongue
					{
						OFFSET -1.142200 -1.059800 6.665200
						CHANNELS 3 Xrotation Yrotation Zrotation
						End Site
						{
							OFFSET 0.000000 12.319243 0.000000
						}
					}
				}
				JOINT RightPantLeg
				{
					OFFSET -0.919482 -16.533978 -2.284800
					CHANNELS 3 Xrotation Yrotation Zrotation
					End Site
					{
						OFFSET -0.350400 24.744419 0.000000
					}
				}
			}
		}
	}
	JOINT Spine
	{
		OFFSET 0.000000 7.722000 1.166200
		CHANNELS 3 Xrotation Yrotation Zrotation
		JOINT Spine1
		{
			OFFSET 0.000000 12.024101 0.248800
			CHANNELS 3 Xrotation Yrotation Zrotation
			JOINT Spine2
			{
				OFFSET 0.000000 11.502998 -0.491200
				CHANNELS 3 Xrotation Yrotation Zrotation
				JOINT Neck
				{
					OFFSET 0.000000 18.430702 -3.123100
					CHANNELS 3 Xrotation Yrotation Zrotation
					JOINT Head
					{
						OFFSET 0.000000 9.051102 1.034000
						CHANNELS 3 Xrotation Yrotation Zrotation
						JOINT HairB
						{
							OFFSET 0.208400 24.786102 24.822300
							CHANNELS 3 Xrotation Yrotation Zrotation
							End Site
							{
								OFFSET 0.000000 32.263779 0.000000
							}
						}
						JOINT HairA
						{
							OFFSET -7.081100 24.428299 23.196600
							CHANNELS 3 Xrotation Yrotation Zrotation
							End Site
							{
								OFFSET 0.000000 32.263779 0.000000
							}
						}
						JOINT Hat
						{
							OFFSET 16.728800 15.048294 -15.439601
							CHANNELS 3 Xrotation Yrotation Zrotation
							End Site
							{
								OFFSET 0.000000 32.263779 0.000000
							}
						}
					}
				}
				JOINT LeftShoulder
				{
					OFFSET 6.197800 13.665199 -4.064700
					CHANNELS 3 Xrotation Yrotation Zrotation
					JOINT LeftArm
					{
						OFFSET 7.778100 -0.187103 -1.709300
						CHANNELS 3 Xrotation Yrotation Zrotation
						JOINT LeftForeArm
						{
							OFFSET 22.049376 0.000000 0.000000
							CHANNELS 3 Xrotation Yrotation Zrotation
							JOINT LeftHand
							{
								OFFSET 23.009392 0.000000 0.000000
								CHANNELS 3 Xrotation Yrotation Zrotation
								JOINT LeftHandThumb1
								{
									OFFSET 3.507191 -2.063065 3.133727
									CHANNELS 3 Xrotation Yrotation Zrotation
									JOINT LeftHandThumb2
									{
										OFFSET 3.101337 -1.790558 1.790558
										CHANNELS 3 Xrotation Yrotation Zrotation
										JOINT LeftHandThumb3
										{
											OFFSET 3.058640 -1.765907 1.765906
											CHANNELS 3 Xrotation Yrotation Zrotation
											End Site
											{
												OFFSET -0.415260 3.926476 -0.049563
											}
										}
									}
								}
								JOINT LeftHandIndex1
								{
									OFFSET 11.334419 -0.901459 3.706815
									CHANNELS 3 Xrotation Yrotation Zrotation
									JOINT LeftHandIndex2
									{
										OFFSET 3.283112 0.000000 0.000000
										CHANNELS 3 Xrotation Yrotation Zrotation
										JOINT LeftHandIndex3
										{
											OFFSET 3.323853 0.000000 0.000000
											CHANNELS 3 Xrotation Yrotation Zrotation
											End Site
											{
												OFFSET -1.135597 3.097809 0.402452
											}
										}
									}
								}
								JOINT LeftHandMiddle1
								{
									OFFSET 11.335861 0.000000 0.000000
									CHANNELS 3 Xrotation Yrotation Zrotation
									JOINT LeftHandMiddle2
									{
										OFFSET 3.410492 0.000000 0.000000
										CHANNELS 3 Xrotation Yrotation Zrotation
										JOINT LeftHandMiddle3
										{
											OFFSET 3.312172 0.000000 0.000000
											CHANNELS 3 Xrotation Yrotation Zrotation
											End Site
											{
												OFFSET -1.150200 3.080154 0.400270
											}
										}
									}
								}
								JOINT LeftHandRing1
								{
									OFFSET 11.514786 -0.013176 -3.003090
									CHANNELS 3 Xrotation Yrotation Zrotation
									JOINT LeftHandRing2
									{
										OFFSET 3.053307 0.000000 0.000000
										CHANNELS 3 Xrotation Yrotation Zrotation
										JOINT LeftHandRing3
										{
											OFFSET 3.295807 0.000000 0.000000
											CHANNELS 3 Xrotation Yrotation Zrotation
											End Site
											{
												OFFSET -1.281006 3.013344 0.375733
											}
										}
									}
								}
								JOINT LeftHandPinky1
								{
									OFFSET 10.518692 -0.960396 -5.730441
									CHANNELS 3 Xrotation Yrotation Zrotation
									JOINT LeftHandPinky2
									{
										OFFSET 2.861649 0.000000 0.000000
										CHANNELS 3 Xrotation Yrotation Zrotation
										JOINT LeftHandPinky3
										{
											OFFSET 2.863380 0.000000 0.000000
											CHANNELS 3 Xrotation Yrotation Zrotation
											End Site
											{
												OFFSET -0.843597 2.711159 0.369971
											}
										}
									}
								}
							}
							JOINT LSleeve
							{
								OFFSET 6.676277 -0.344902 -1.011730
								CHANNELS 3 Xrotation Yrotation Zrotation
								End Site
								{
									OFFSET 0.000000 14.885353 0.000000
								}
							}
						}
					}
				}
				JOINT RightShoulder
				{
					OFFSET -6.197800 13.665199 -4.064700
					CHANNELS 3 Xrotation Yrotation Zrotation
					JOINT RightArm
					{
						OFFSET -7.778100 -0.187103 -1.709300
						CHANNELS 3 Xrotation Yrotation Zrotation
						JOINT RightForeArm
						{
							OFFSET -22.049376 0.000000 0.000000
							CHANNELS 3 Xrotation Yrotation Zrotation
							JOINT RightHand
							{
								OFFSET -23.009392 0.000000 0.000000
								CHANNELS 3 Xrotation Yrotation Zrotation
								JOINT RightHandThumb1
								{
									OFFSET -3.507191 -2.063065 3.133727
									CHANNELS 3 Xrotation Yrotation Zrotation
									JOINT RightHandThumb2
									{
										OFFSET -3.101337 -1.790558 1.790558
										CHANNELS 3 Xrotation Yrotation Zrotation
										JOINT RightHandThumb3
										{
											OFFSET -3.058640 -1.765907 1.765906
											CHANNELS 3 Xrotation Yrotation Zrotation
											End Site
											{
												OFFSET 0.415260 3.926476 -0.049563
											}
										}
									}
								}
								JOINT RightHandIndex1
								{
									OFFSET -11.334419 -0.901459 3.706815
									CHANNELS 3 Xrotation Yrotation Zrotation
									JOINT RightHandIndex2
									{
										OFFSET -3.283112 0.000000 0.000000
										CHANNELS 3 Xrotation Yrotation Zrotation
										JOINT RightHandIndex3
										{
											OFFSET -3.323853 0.000000 0.000000
											CHANNELS 3 Xrotation Yrotation Zrotation
											End Site
											{
												OFFSET 1.135597 3.097809 0.402452
											}
										}
									}
								}
								JOINT RightHandMiddle1
								{
									OFFSET -11.335861 0.000000 0.000000
									CHANNELS 3 Xrotation Yrotation Zrotation
									JOINT RightHandMiddle2
									{
										OFFSET -3.410492 0.000000 0.000000
										CHANNELS 3 Xrotation Yrotation Zrotation
										JOINT RightHandMiddle3
										{
											OFFSET -3.312172 0.000000 0.000000
											CHANNELS 3 Xrotation Yrotation Zrotation
											End Site
											{
												OFFSET 1.150200 3.080154 0.400270
											}
										}
									}
								}
								JOINT RightHandRing1
								{
									OFFSET -11.514786 -0.013176 -3.003090
									CHANNELS 3 Xrotation Yrotation Zrotation
									JOINT RightHandRing2
									{
										OFFSET -3.053307 0.000000 0.000000
										CHANNELS 3 Xrotation Yrotation Zrotation
										JOINT RightHandRing3
										{
											OFFSET -3.295807 0.000000 0.000000
											CHANNELS 3 Xrotation Yrotation Zrotation
											End Site
											{
												OFFSET 1.281006 3.013344 0.375733
											}
										}
									}
								}
								JOINT RightHandPinky1
								{
									OFFSET -10.518692 -0.960396 -5.730441
									CHANNELS 3 Xrotation Yrotation Zrotation
									JOINT RightHandPinky2
									{
										OFFSET -2.861649 0.000000 0.000000
										CHANNELS 3 Xrotation Yrotation Zrotation
										JOINT RightHandPinky3
										{
											OFFSET -2.863380 0.000000 0.000000
											CHANNELS 3 Xrotation Yrotation Zrotation
											End Site
											{
												OFFSET 0.843597 2.711159 0.369971
											}
										}
									}
								}
							}
							JOINT RSleeve
							{
								OFFSET -6.676277 -0.344902 -1.011730
								CHANNELS 3 Xrotation Yrotation Zrotation
								End Site
								{
									OFFSET 0.000000 14.885353 0.000000
								}
							}
						}
					}
				}
				JOINT Backpack
				{
					OFFSET 0.000000 -2.471497 36.677502
					CHANNELS 3 Xrotation Yrotation Zrotation
					End Site
					{
						OFFSET 0.000000 20.427315 0.000000
					}
				}
				JOINT Hood
				{
					OFFSET 0.000000 18.754097 -10.431000
					CHANNELS 3 Xrotation Yrotation Zrotation
					JOINT Hood1
					{
						OFFSET 0.000000 -5.011002 -7.685901
						CHANNELS 3 Xrotation Yrotation Zrotation
						End Site
						{
							OFFSET 0.000000 9.175140 0.000000
						}
					}
				}
				JOINT LHoodieString
				{
					OFFSET 5.250500 16.397697 3.089900
					CHANNELS 3 Xrotation Yrotation Zrotation
					JOINT LHoodieString1
					{
						OFFSET 0.257700 -6.364304 3.694600
						CHANNELS 3 Xrotation Yrotation Zrotation
						JOINT LHoodieString2
						{
							OFFSET 0.000000 -9.643799 2.679100
							CHANNELS 3 Xrotation Yrotation Zrotation
							End Site
							{
								OFFSET 0.000000 10.009018 0.000000
							}
						}
					}
				}
				JOINT RHoodieString
				{
					OFFSET -5.250500 16.397697 3.089900
					CHANNELS 3 Xrotation Yrotation Zrotation
					JOINT RHoodieString1
					{
						OFFSET -0.257700 -6.364304 3.694600
						CHANNELS 3 Xrotation Yrotation Zrotation
						JOINT RHoodieString2
						{
							OFFSET 0.000000 -9.643799 2.679100
							CHANNELS 3 Xrotation Yrotation Zrotation
							End Site
							{
								OFFSET 0.000000 10.009018 0.000000
							}
						}
					}
				}
			}
			JOINT LBackpack_Strap
			{
				OFFSET 15.223200 -7.719803 -6.610900
				CHANNELS 3 Xrotation Yrotation Zrotation
				End Site
				{
					OFFSET 0.000000 16.040596 0.000000
				}
			}
			JOINT RBackpack_Strap
			{
				OFFSET -15.223000 -7.719803 -6.610900
				CHANNELS 3 Xrotation Yrotation Zrotation
				End Site
				{
					OFFSET 0.000000 16.040596 0.000000
				}
			}
		}
	}
	JOINT BoyFacialAnim_Joint
	{
		OFFSET 1.000000 -82.208099 -1.550900
		CHANNELS 3 Xrotation Yrotation Zrotation
		End Site
		{
			OFFSET 0.000000 30.012791 0.000000
		}
	}
}
MOTION
Frames: 4
Frame Time: 0.033333
1.564232 48.957909 31.821823 34.868027 -18.635118 4.874875 -0.000001 0.000000 -0.000000 -86.696260 9.149451 33.017134 118.203431 -43.700906 -5.955926 -55.409749 -4.390137 5.213182 -0.000001 0.000001 0.000001 -0.000001 0.000001 0.000001 0.000002 -0.000000 -0.000000 -9.557894 -3.095364 -24.408857 49.596674 7.603684 0.253147 -52.958801 -8.135408 21.593927 0.000002 -0.000001 0.000000 0.000002 -0.000001 0.000000 0.000000 -0.000003 0.000001 9.612697 1.369638 -1.414066 1.805567 0.601443 2.081615 1.792868 0.642586 2.087232 -3.450206 5.827994 4.306264 -26.264473 21.405553 6.856239 0.000001 0.000000 0.000001 0.000001 0.000000 0.000001 0.000001 0.000000 0.000001 16.962000 -18.374379 -6.686083 -58.709137 29.406334 -43.844753 -16.150112 -33.411930 -11.811277 25.572544 17.675549 12.938426 -4.475030 -4.826189 4.178576 5.975204 12.647524 1.348330 -0.000001 -0.000001 -0.000001 0.149648 2.661973 -4.386271 0.021909 0.713800 -6.941493 0.000001 0.000000 -0.000005 -1.204841 3.946624 -12.242738 -2.665686 2.039162 -11.517486 0.000001 -0.000001 0.000002 -6.355760 7.311404 -20.877759 -5.744337 4.282459 -18.187952 0.000000 0.000000 0.000001 -9.675771 9.216942 -25.990811 -9.216603 7.217790 -22.530388 0.000000 0.000000 -0.000002 0.000001 0.000002 0.000001 12.286178 26.258092 12.698326 -35.903012 0.050953 39.354112 132.032679 178.997497 -176.930108 -16.535680 25.329261 -13.983856 13.942486 -4.273664 -5.300351 7.113181 -20.767562 -2.619512 -0.000001 -0.000002 -0.000001 0.357755 -5.832712 5.175832 0.094331 -0.933642 11.539830 -0.000001 0.000004 0.000002 3.764063 -12.080499 1.143739 5.714249 -4.535858 103.133507 0.000002 -0.000002 -0.000002 -12.155594 -12.623918 9.228363 6.566887 -4.248421 114.232291 -0.000002 0.000002 0.000001 -17.635752 -10.496835 3.325394 4.993686 -4.645057 94.147963 0.000002 -0.000003 -0.000002 0.000003 -0.000002 -0.000002 -0.000000 0.000001 -0.000000 -0.000000 0.000001 -0.000000 -0.000000 0.000001 -0.000000 -0.000000 0.000001 -0.000000 -0.000000 0.000001 -0.000000 0.000000 -0.000001 -0.000000 -0.000000 0.000001 -0.000000 -0.000000 0.000001 -0.000000 0.000000 -0.000001 -0.000000 0.000002 0.000000 -0.000000 0.000002 0.000000 -0.000000 -0.000001 0.000000 -0.000000 
2.632556 44.910225 35.043179 36.722580 -16.993680 4.208796 -0.000002 -0.000001 0.000000 -91.403026 6.906651 45.229601 115.613683 -70.794795 -8.369686 -33.849127 1.159160 -20.046031 -0.000001 -0.000000 -0.000002 -0.000001 -0.000000 -0.000002 -0.000000 -0.000001 -0.000000 -10.147619 -5.395240 -28.794834 51.974417 9.392827 1.194926 -51.045716 -9.066279 24.961811 0.000000 0.000001 0.000000 0.000000 0.000001 0.000000 -0.000000 0.000002 0.000000 9.389768 1.560665 1.671011 1.435416 0.344337 1.063292 1.431700 0.363113 1.067677 -4.937433 5.301513 4.547049 -30.421338 18.845224 8.606656 0.000000 0.000000 -0.000000 0.000000 0.000000 -0.000000 0.000000 0.000000 -0.000000 16.396158 -18.421893 -4.900333 -64.830018 33.288085 -42.442574 -14.405846 -32.202812 -10.252457 32.537898 12.286408 7.610073 -5.033153 -5.305256 4.347037 5.975204 12.647524 1.348328 0.000001 -0.000000 0.000002 0.224414 2.763016 -5.265225 0.019044 0.681496 -6.626577 -0.000001 0.000001 0.000000 -1.311451 4.074934 -13.080997 -2.698257 2.069971 -11.671437 -0.000000 -0.000002 -0.000004 -6.614303 7.567283 -21.682246 -5.951977 4.501236 -18.935767 -0.000000 0.000000 -0.000002 -9.959492 9.474791 -26.725127 -9.550062 7.608915 -23.489907 -0.000001 0.000001 -0.000000 -0.000000 0.000001 0.000001 10.875922 26.253412 12.797510 -33.547540 -4.677363 38.893436 126.087751 177.309266 -174.417978 -12.000980 24.832783 -17.795549 13.942488 -4.273673 -5.300348 7.113180 -20.767562 -2.619518 -0.000001 0.000000 -0.000004 0.357758 -5.832716 5.175838 0.094326 -0.933643 11.539828 0.000003 0.000003 0.000004 3.764068 -12.080509 1.143743 5.714246 -4.535855 103.133514 -0.000004 -0.000003 -0.000001 -12.155588 -12.623920 9.228365 6.566888 -4.248414 114.232291 -0.000000 0.000002 0.000002 -17.635752 -10.496842 3.325391 4.993683 -4.645057 94.147956 -0.000003 0.000000 -0.000001 0.000002 -0.000000 -0.000001 -0.000002 0.000001 -0.000001 -0.000002 0.000001 -0.000001 -0.000002 0.000001 -0.000001 -0.000002 0.000001 -0.000001 -0.000002 0.000001 0.000000 -0.000000 0.000001 0.000000 -0.000002 0.000001 -0.000001 -0.000002 0.000001 0.000000 -0.000000 0.000001 0.000000 -0.000001 0.000000 -0.000001 -0.000001 0.000000 -0.000001 -0.000002 -0.000001 0.000000 
3.637481 40.637367 38.424801 38.669331 -14.986982 4.022078 0.000002 0.000000 -0.000000 -96.692167 15.672106 54.417736 119.843770 -79.588923 2.670949 -7.489148 -1.979265 -49.737376 0.000001 0.000000 -0.000003 0.000001 0.000000 -0.000002 -0.000002 -0.000001 0.000002 -9.952297 -7.535186 -33.727324 53.001537 11.843967 2.174271 -47.268949 -10.183523 28.468659 -0.000001 0.000000 -0.000000 -0.000001 0.000000 -0.000000 -0.000000 0.000001 -0.000000 8.643460 1.487570 4.459269 1.135568 0.107343 0.088560 1.135905 0.105750 0.092854 -6.396044 4.767783 4.631994 -34.434460 16.924765 9.580241 0.000000 0.000000 0.000001 0.000000 0.000000 0.000001 0.000000 0.000000 0.000001 15.712640 -19.400732 -2.990431 -69.912812 36.073760 -40.381619 -13.633029 -32.364332 -10.076432 37.944006 8.082655 5.311222 -5.484460 -5.689993 4.476339 5.975204 12.647522 1.348328 -0.000001 -0.000001 0.000002 0.295323 2.856959 -6.073487 0.016537 0.651524 -6.334300 -0.000003 0.000000 -0.000005 -1.405383 4.191246 -13.832056 -2.728701 2.098592 -11.814628 0.000002 -0.000001 0.000002 -6.833658 7.789980 -22.372845 -6.135495 4.699418 -19.604998 -0.000001 -0.000000 -0.000000 -10.186383 9.684096 -27.315467 -9.814031 7.927916 -24.261675 0.000001 0.000001 -0.000000 0.000000 0.000004 0.000002 9.542283 25.926140 12.565869 -29.549557 -12.827882 39.243958 123.073056 171.434483 -165.337583 -8.320727 23.230018 -26.510975 13.942487 -4.273671 -5.300348 7.113179 -20.767562 -2.619514 -0.000001 0.000001 -0.000001 0.357757 -5.832715 5.175835 0.094325 -0.933642 11.539831 0.000003 0.000001 0.000005 3.764065 -12.080505 1.143739 5.714245 -4.535857 103.133507 0.000002 0.000000 0.000002 -12.155593 -12.623924 9.228361 6.566888 -4.248417 114.232291 0.000001 -0.000001 0.000000 -17.635750 -10.496840 3.325390 4.993680 -4.645052 94.147963 0.000004 0.000000 -0.000003 0.000001 -0.000000 -0.000002 -0.000000 -0.000000 -0.000001 -0.000000 -0.000000 -0.000001 -0.000000 -0.000000 -0.000001 -0.000000 -0.000000 -0.000001 -0.000000 -0.000000 -0.000001 -0.000000 -0.000001 0.000001 -0.000000 -0.000000 -0.000001 -0.000000 -0.000000 -0.000001 -0.000000 -0.000001 0.000001 -0.000004 0.000001 -0.000001 -0.000004 0.000001 -0.000001 0.000002 0.000000 -0.000000 
4.457824 35.900467 42.150093 40.323733 -12.923215 4.030323 0.000003 0.000000 0.000000 -98.234076 25.508313 62.641393 135.267471 -79.360228 19.462889 40.837274 -18.621186 -33.913819 -0.000000 -0.000001 0.000002 -0.000000 -0.000001 0.000002 -0.000003 -0.000001 -0.000001 -8.213862 -10.090140 -38.760425 51.914284 14.111976 3.014289 -41.404877 -10.321405 32.789587 0.000000 0.000003 -0.000000 0.000000 0.000003 -0.000000 -0.000000 -0.000001 -0.000000 7.307805 0.996399 4.614931 1.111099 -0.046324 0.116912 1.111245 -0.048029 0.118940 -7.644724 4.321816 4.548199 -38.027853 15.975242 9.792112 -0.000000 -0.000000 -0.000000 -0.000000 -0.000000 -0.000000 -0.000000 -0.000000 -0.000000 15.439241 -21.748321 -0.997458 -73.487207 38.656087 -38.216722 -14.691727 -35.700142 -11.543526 42.352873 6.071888 5.898973 -5.806797 -5.963249 4.564846 5.975203 12.647520 1.348330 -0.000001 0.000001 0.000002 0.360194 2.941239 -6.792744 0.014426 0.624381 -6.069619 -0.000000 -0.000003 -0.000006 -1.484555 4.291722 -14.474597 -2.756235 2.124808 -11.943580 0.000001 -0.000003 -0.000000 -7.007599 7.970362 -22.926023 -6.290599 4.870543 -20.176756 0.000001 -0.000001 0.000001 -10.347134 9.834009 -27.735435 -9.999502 8.157292 -24.810940 -0.000000 0.000001 -0.000000 -0.000001 0.000004 0.000001 8.859748 25.463418 11.815951 -29.717067 -18.104642 37.890331 119.889969 170.669202 -163.141418 -4.882605 21.382693 -30.487311 13.942489 -4.273664 -5.300350 7.113181 -20.767566 -2.619520 -0.000000 0.000001 -0.000003 0.357754 -5.832712 5.175834 0.094328 -0.933642 11.539827 0.000000 0.000001 0.000000 3.764064 -12.080503 1.143741 5.714247 -4.535854 103.133507 0.000004 0.000004 0.000000 -12.155594 -12.623920 9.228364 6.566888 -4.248417 114.232298 0.000001 -0.000000 0.000004 -17.635752 -10.496835 3.325394 4.993678 -4.645058 94.147963 -0.000001 -0.000002 -0.000002 -0.000001 -0.000001 -0.000000 0.000000 0.000001 -0.000001 0.000000 0.000001 -0.000001 0.000000 0.000001 -0.000001 0.000000 0.000001 -0.000001 0.000000 0.000001 -0.000001 0.000000 -0.000001 0.000000 0.000000 0.000001 -0.000001 0.000000 0.000001 -0.000001 0.000000 -0.000001 0.000000 0.000001 0.000000 0.000000 0.000001 0.000000 0.000000 0.000003 0.000000 0.000000 
